<svg xmlns="http://www.w3.org/2000/svg" viewBox="0 0 330 200"><g><g><g><g><g><line x1="50" x2="45" y1="177" y2="177" style="visibility:inherit" fill="#000" stroke="#CCC" stroke-width="1"/><line x1="50" x2="45" y1="154.875" y2="154.875" style="visibility:inherit" fill="#000" stroke="#CCC" stroke-width="1"/><line x1="50" x2="45" y1="132.75" y2="132.75" style="visibility:inherit" fill="#000" stroke="#CCC" stroke-width="1"/><line x1="50" x2="45" y1="110.625" y2="110.625" style="visibility:inherit" fill="#000" stroke="#CCC" stroke-width="1"/><line x1="50" x2="45" y1="88.5" y2="88.5" style="visibility:inherit" fill="#000" stroke="#CCC" stroke-width="1"/><line x1="50" x2="45" y1="66.375" y2="66.375" style="visibility:inherit" fill="#000" stroke="#CCC" stroke-width="1"/><line x1="50" x2="45" y1="44.25" y2="44.25" style="visibility:inherit" fill="#000" stroke="#CCC" stroke-width="1"/><line x1="50" x2="45" y1="22.125" y2="22.125" style="visibility:inherit" fill="#000" stroke="#CCC" stroke-width="1"/><line x1="50" x2="45" y1="0" y2="0" style="visibility:inherit" fill="#000" stroke="#CCC" stroke-width="1"/></g><g><text x="0" y="177" dx="0em" dy=".3em" style="text-anchor:end;visibility:hidden;font-family:&quot;Helvetica Neue&quot;,sans-serif;font-size:12px;font-weight:200" fill="#212121" stroke="none" stroke-width="1" transform="translate(40, 0)">0.84</text><text x="0" y="154.875" dx="0em" dy=".3em" style="text-anchor:end;visibility:inherit;font-family:&quot;Helvetica Neue&quot;,sans-serif;font-size:12px;font-weight:200" fill="#212121" stroke="none" stroke-width="1" transform="translate(40, 0)">0.86</text><text x="0" y="132.75" dx="0em" dy=".3em" style="text-anchor:end;visibility:hidden;font-family:&quot;Helvetica Neue&quot;,sans-serif;font-size:12px;font-weight:200" fill="#212121" stroke="none" stroke-width="1" transform="translate(40, 0)">0.88</text><text x="0" y="110.625" dx="0em" dy=".3em" style="text-anchor:end;visibility:inherit;font-family:&quot;Helvetica Neue&quot;,sans-serif;font-size:12px;font-weight:200" fill="#212121" stroke="none" stroke-width="1" transform="translate(40, 0)">0.9</text><text x="0" y="88.5" dx="0em" dy=".3em" style="text-anchor:end;visibility:hidden;font-family:&quot;Helvetica Neue&quot;,sans-serif;font-size:12px;font-weight:200" fill="#212121" stroke="none" stroke-width="1" transform="translate(40, 0)">0.92</text><text x="0" y="66.375" dx="0em" dy=".3em" style="text-anchor:end;visibility:inherit;font-family:&quot;Helvetica Neue&quot;,sans-serif;font-size:12px;font-weight:200" fill="#212121" stroke="none" stroke-width="1" transform="translate(40, 0)">0.94</text><text x="0" y="44.25" dx="0em" dy=".3em" style="text-anchor:end;visibility:hidden;font-family:&quot;Helvetica Neue&quot;,sans-serif;font-size:12px;font-weight:200" fill="#212121" stroke="none" stroke-width="1" transform="translate(40, 0)">0.96</text><text x="0" y="22.125" dx="0em" dy=".3em" style="text-anchor:end;visibility:inherit;font-family:&quot;Helvetica Neue&quot;,sans-serif;font-size:12px;font-weight:200" fill="#212121" stroke="none" stroke-width="1" transform="translate(40, 0)">0.98</text><text x="0" y="0" dx="0em" dy=".3em" style="text-anchor:end;visibility:hidden;font-family:&quot;Helvetica Neue&quot;,sans-serif;font-size:12px;font-weight:200" fill="#212121" stroke="none" stroke-width="1" transform="translate(40, 0)">1</text></g><line x1="50" x2="50" y1="0" y2="177" fill="#000" stroke="#CCC" stroke-width="1"/></g></g><g clip-path="url(#clip_0)" transform="translate(50, 0)"><clipPath id="clip_0"><rect width="280" height="177"/></clipPath><g><g><g><line x1="0" x2="0" y1="0" y2="177" fill="#000" stroke="#424242" stroke-width="1" opacity=".25"/><line x1="20" x2="20" y1="0" y2="177" fill="#000" stroke="#424242" stroke-width="1" opacity=".25"/><line x1="40" x2="40" y1="0" y2="177" fill="#000" stroke="#424242" stroke-width="1" opacity=".25"/><line x1="60" x2="60" y1="0" y2="177" fill="#000" stroke="#424242" stroke-width="1" opacity=".25"/><line x1="80" x2="80" y1="0" y2="177" fill="#000" stroke="#424242" stroke-width="1" opacity=".25"/><line x1="100" x2="100" y1="0" y2="177" fill="#000" stroke="#424242" stroke-width="1" opacity=".25"/><line x1="120" x2="120" y1="0" y2="177" fill="#000" stroke="#424242" stroke-width="1" opacity=".25"/><line x1="140" x2="140" y1="0" y2="177" fill="#000" stroke="#424242" stroke-width="1" opacity=".25"/><line x1="160" x2="160" y1="0" y2="177" fill="#000" stroke="#424242" stroke-width="1" opacity=".25"/><line x1="180" x2="180" y1="0" y2="177" fill="#000" stroke="#424242" stroke-width="1" opacity=".25"/><line x1="200" x2="200" y1="0" y2="177" fill="#000" stroke="#424242" stroke-width="1" opacity=".25"/><line x1="220" x2="220" y1="0" y2="177" fill="#000" stroke="#424242" stroke-width="1" opacity=".25"/><line x1="240" x2="240" y1="0" y2="177" fill="#000" stroke="#424242" stroke-width="1" opacity=".25"/><line x1="260" x2="260" y1="0" y2="177" fill="#000" stroke="#424242" stroke-width="1" opacity=".25"/><line x1="280" x2="280" y1="0" y2="177" fill="#000" stroke="#424242" stroke-width="1" opacity=".25"/></g><g><line x1="0" x2="280" y1="177" y2="177" fill="#000" stroke="#424242" stroke-width="1" opacity=".25"/><line x1="0" x2="280" y1="154.875" y2="154.875" fill="#000" stroke="#424242" stroke-width="1" opacity=".25"/><line x1="0" x2="280" y1="132.75" y2="132.75" fill="#000" stroke="#424242" stroke-width="1" opacity=".25"/><line x1="0" x2="280" y1="110.625" y2="110.625" fill="#000" stroke="#424242" stroke-width="1" opacity=".25"/><line x1="0" x2="280" y1="88.5" y2="88.5" fill="#000" stroke="#424242" stroke-width="1" opacity=".25"/><line x1="0" x2="280" y1="66.375" y2="66.375" fill="#000" stroke="#424242" stroke-width="1" opacity=".25"/><line x1="0" x2="280" y1="44.25" y2="44.25" fill="#000" stroke="#424242" stroke-width="1" opacity=".25"/><line x1="0" x2="280" y1="22.125" y2="22.125" fill="#000" stroke="#424242" stroke-width="1" opacity=".25"/><line x1="0" x2="280" y1="0" y2="0" fill="#000" stroke="#424242" stroke-width="1" opacity=".25"/></g></g></g><g><g><line x1="0" x2="280" y1="1106.25" y2="1106.25" fill="#000" stroke="#999" stroke-width="1.5"/></g></g><g><g><line x1="20" x2="20" y1="0" y2="177" fill="#000" stroke="#999" stroke-width="1.5"/></g></g><g><g><g><g><g><path stroke="#07B" stroke-width="2" d="M20,179.79756519198415L22,175.96617629751546L24,170.89211523380806L26,166.76533643074103L28,163.26899891001818L30,160.33970388727872L32,157.65936761118652L34,155.10786117602828L36,152.67235257445083L38,150.17463894125117L40,148.05061726536482L42,145.64491533077555L44,143.38641814127294L46,140.30925057239102L48,137.33898962133551L50,135.0742414487828L52,133.5487400138713L54,131.83372601529516L56,129.38977390085637L58.00000000000001,128.03775886460022L60,126.2685657048727L62,124.46882713305925L64,122.43099682599242L66,120.23274377303159L68,117.58668117639436L70,115.19049335810699L72,112.82116262583608L74,110.81071589193661L76,108.69044713815333L78,106.52171893240245L80,104.59655392455196L82,103.10744135620529L84,102.32820426106154L86,101.2630560073833L88,101.52042884515586L90,101.84185939695293L92,103.00144263428338L93.99999999999999,104.68156239014L96,105.66328555934477L98,106.80601099639603L100,107.65860035791505L102,107.54617291549108L104,107.08319612048156L106,106.3572187285482L108,106.07982987525313L110,106.17706799127616L112,105.87504848012951L114,105.58833655219398L116.00000000000001,105.68881646693555L118,105.47662371933772L120,105.60419660532722L122,105.38193733527747L124,104.02694196125324L126,103.49515557658894L128,101.64683166368032L130,98.58674259914764L132,95.62571392615854L134,93.37447760200591L136,91.153622732735L138,89.11805633674628L140,88.04610481244656L142,87.33259162534671L144,86.3156342281663L146,86.29433564983391L148,86.50126071359276L150,86.95056743374792L152,87.61569817037193L154,85.89664867026104L156,84.63673186601692L158,84.51354573548731L160,84.62425944436123L162.00000000000003,84.6642598642619L164,84.52130601607033L166,85.40228498460223L168,85.14864097524509L170,83.52000534825811L172,84.89822191174804L174,86.32275785312633L176,87.60813132110583L178,88.27393430580705L180,87.97025712198025L182,88.59663088241825L184,89.50852813792001L186,89.94146250171514L187.99999999999997,89.78813700367843L190,89.30943064385548L192,89.49682594832109L194,90.19808624086583L196,89.01049154339921L198,88.92194215857192L200,87.22533008100513L202,86.40952763343998L204,85.34876246681898L206,88.77274313229974L208,90.30851881896638L210,91.4761162471484L212,91.56145016382396L214,90.68978732842356L216,92.88254994760835L218,95.25291960603518L220,96.60482550362667L222,101.25673097193193L224,94.69651926648585L226,101.06087997014502L228,99.42165344628805L230,103.7992695252484L232.00000000000003,102.39180083753983L234,96.36187825013594L236,91.61019294505954L238,88.57458274987731L240,88.35281098739735L242,88.60645899091031L244,88.76745706149262L246,87.19417202680309L248,87.28729455595614L250,90.36648791387923L252,93.39170289847401L254,94.06429086812224L256,94.30956694297718L258,96.7770780790611L260,93.9598486226061L262,94.70400767929908L264,94.73744337205613L266,95.3990516331466L268,94.42493571440403" style="fill:none" fill="none"/></g><g><path stroke="#FF7043" stroke-width="2" d="M36,177.40420432415414L38,171.4506808235002L40,165.54917738161072L42,159.87861535769025L44,154.2706720984216L46,148.85109618484495L48,143.41198979008274L50,138.2382235045077L52,133.76653953357663L54,129.7396723952506L56,125.79671061008227L58.00000000000001,122.0517533680287L60,118.75796499320603L62,115.72400544727108L64,112.9694698156674L66,110.57029200641436L68,107.61229721987577L70,104.782976469784L72,101.75724346387764L74,98.53609345602997L76,95.64187534652262L78,93.1247224786329L80,91.00271437502641L82,88.6534601007015L84,86.13903016088517L86,83.91447412696455L88,82.0901667622653L90,81.9904230851333L92,80.36355570849676L93.99999999999999,79.02409252561611L96,78.31248993737404L98,77.17635589723643L100,76.85174097324118L102,75.46189188714315L104,73.26927146106527L106,71.16643017964631L108,68.95799280046565L110,66.90529534708065L112,65.17426520275905L114,63.7364079039241L116.00000000000001,62.37114322070107L118,61.16841198135728L120,60.185792065432864L122,59.066266129473206L124,58.666714763676026L126,59.07016604306432L128,58.1292100796819L130,56.84425461588573L132,54.93925945936557L134,53.00938896524244L136,50.62713660113391L138,48.15847612805584L140,46.142024471684834L142,44.183365657522955L144,42.62378031289265L146,41.48048379585558L148,40.692566296848014L150,40.228308565254366L152,40.211183474561864L154,39.782362667382614L156,38.368550382650454L158,37.12996494328769L160,36.474853614305204L162.00000000000003,35.85675484498438L164,35.89011968112035L166,36.12169290146858L168,35.74814313388836L170,35.077167086225586L172,35.45739309932111L174,35.22069473234018L176,34.17234968642714L178,32.194179454447834L180,30.875639414192477L182,30.002330717683492L184,29.337318079018928L186,28.907346180882598L187.99999999999997,28.60486832368764L190,28.340774936129918L192,27.603808440357568L194,26.45788931702984L196,25.159517937036867L198,23.77550409026898L200,23.44139519803508L202,24.066442718939754L204,23.35946096231754L206,22.33977590948473L208,21.86585366696201L210,21.535238474429093L212,20.980726987016453L214,20.428843384916945L216,19.67866634484261L218,19.802982450462054L220,20.92447718437711L222,20.30523368988159L224,21.255948241196506L226,20.622672197605596L228,21.785937432876494L230,20.818048080463L232.00000000000003,24.703930086290143L234,29.14857597136219L236,26.318485474489478L238,23.241200408877233L240,22.050064868653607L242,20.314088652685143L244,18.968477660509762L246,17.368435152824418L248,16.487402938876016L250,15.87074367587175L252,15.66242720713862L254,15.774549073163513L256,15.74935124885073L258,15.053360501355115L260,15.948531680957075L262,16.41381511310078L264,15.611476029272836L266,15.695052638838291L268,15.05309077810611" style="fill:none" fill="none"/></g></g></g></g><g opacity=".2"><g><g><g><path stroke="#07B" stroke-width="2" d="M20,179.79756519198415L22,173.66734296083447L24,166.02101661264894L26,161.91224455833432L28,158.70418064296243L30,156.28743432462213L32,153.82644385099408L34,151.38774029910562L36,149.08045046031472L38,146.4658252894878L40,144.88384947180745L42,142.04945415258405L44,140.00604674220082L46,135.69952771067616L48,132.88708962500093L50,131.67871646583077L52,131.26113340258595L54,129.26164045929906L56,125.7242180407047L58.00000000000001,126.00985988974568L60,123.6148729920387L62,121.7692784965038L64,119.37429159879682L66,116.9353902339935L68,113.61760608851907L70,111.5962218493223L72,109.2671725898981L74,107.79504887759684L76,105.51004596054553L78,103.26862782239913L80,101.70880705118178L82,100.8737727999687L84,101.15934871137141L86,99.66533370316027L88,101.90648809075354L90,102.32400521636008L92,104.74081747233866L93.99999999999999,107.20174200832842L96,107.13587030768393L98,108.52009914815424L100,108.93748439848422L102,107.3775317519903L104,106.3887309283018L106,105.26825264096259L108,105.66374659538268L110,106.32292516529559L112,105.42201921343802L114,105.15826866030692L116.00000000000001,105.83953633904456L118,105.1583345979452L120,105.79555593430995L122,105.04854843020438L124,101.99444890022276L126,102.69747599959372L128,98.87434579432009L130,93.99660900235175L132,91.1841709166765L134,89.99762311577796L136,87.82234042882918L138,86.0647067427635L140,86.43817752599715L142,86.26232184469698L144,84.79019813239573L146,86.26238778233527L148,86.81164830923079L150,87.62452751398085L152,88.61339427530764L154,83.31807442009448L156,82.74685665965079L158,84.32876653969286L160,84.7903300076723L162.00000000000003,84.72426049411295L164,84.30687524378298L166,86.72375343739985L168,84.76817496120928L170,81.07705190777777L172,86.96554675698279L174,88.45956176519392L176,89.53619152307509L178,89.27263878285883L180,87.51474134624003L182,89.53619152307509L184,90.87637402117251L186,90.59086404740809L187.99999999999997,89.55814875662325L190,88.5913711041212L192,89.77791890501975L194,91.24997667968272L196,87.22909949719904L198,88.78911808133124L200,84.68041196465491L202,85.18582396209239L204,83.75761471688746L206,93.9087141305208L208,92.61218234896658L210,93.22751238942145L212,91.68945103883742L214,89.38229307532309L216,96.17169387638567L218,98.8084740936756L220,98.63268435001372L222,108.23458917438982L224,84.85620170831679L226,110.6074210256338L228,96.96281366050242L230,110.36569364368914L232.00000000000003,100.28059780597685L234,87.31699436902998L236,84.48266498744486L238,84.02116745710372L240,88.0201533436775L242,88.98693099617957L244,89.00895416736601L246,84.83424447476862L248,87.42697834968565L250,94.98527795076369L252,97.9295253753662L254,95.07317282259463L256,94.67748105525969L258,100.4783447831869L260,89.73400443792342L262,95.82024626433848L264,94.78759691119193L266,96.39146402478217L268,92.96376183629035" style="fill:none" fill="none"/></g><g><path stroke="#FF7043" stroke-width="2" d="M32,179.6726133674383L34,173.741852492094L36,167.99209043383595L38,162.61039227247235L40,156.75044842064378L42,151.40363126993176L44,145.8770681172609L46,140.7323498278856L48,135.25972366333005L50,130.48122301697728L52,127.06090584397313L54,123.70039410889146L56,119.88286860287187L58.00000000000001,116.4346598088741L60,113.81746307015416L62,111.17316596210001L64,108.83772075176238L66,106.97155371308325L68,103.175326064229L70,100.53900741040705L72,97.21865169703959L74,93.70437338948248L76,91.3005508482456L78,89.34899456799029L80,87.81970292329787L82,85.12957915663718L84,82.36738555133341L86,80.57764023542403L88,79.35370579361914L90,81.84080757200717L92,77.9232546687126L93.99999999999999,77.01489776372908L96,77.24508605897425L98,75.47215484082697L100,76.3648185878992L102,73.37711825966834L104,69.98034082353114L106,68.01216825842856L108,65.64533673226832L110,63.8262491673231L112,62.57771998643874L114,61.57962195575236L116.00000000000001,60.32324619591235L118,59.36431512236594L120,58.71186219155787L122,57.386977225542054L124,58.06738771498202L126,59.67534296214579L128,56.71777613461016L130,54.916821420192704L132,52.08176672458647L134,50.11458322405815L136,47.053758054971695L138,44.45548541843891L140,43.11734698712826L142,41.24537743628025L144,40.284402295947075L146,39.76553902029991L148,39.51069004833698L150,39.53192196786404L152,40.18549583852291L154,39.13913145661354L156,36.2478319555521L158,35.272086784243584L160,35.49218662083149L162.00000000000003,34.929606691002846L164,35.94016693532467L166,36.469052731990814L168,35.187818482518196L170,34.07070301473141L172,36.027732118964195L174,34.86564718186855L176,32.599832117557526L178,29.22692410647869L180,28.897829353809357L182,28.692367672920227L184,28.339799121022224L186,28.262388333678246L187.99999999999997,28.151151537895203L190,27.94463485479355L192,26.498358696699142L194,24.739010632038116L196,23.21196086704731L198,21.699483320116997L200,22.94023185968399L202,25.004014000296593L204,22.298988327383995L206,20.81024833023548L208,21.154970303177834L210,21.039315685629845L212,20.148959755897522L214,19.601017981767654L216,18.55340078473091L218,19.989456608891487L220,22.60671928524971L222,19.376368448138237L224,22.68202006816864L226,19.672758132219315L228,23.530835285782814L230,19.36621405184269L232.00000000000003,30.532753095030785L234,35.81554479897022L236,22.073349729180336L238,18.625272810459137L240,20.263361558318138L242,17.71012432873249L244,16.950061172246933L246,14.968371391296387L248,15.1658546179533L250,14.945754781365395L252,15.34995250403881L254,15.942731872200966L256,15.711554512381554L258,14.009374380111694L260,17.291288450360298L262,17.1117402613163L264,14.407967403531075L266,15.820417553186417L268,14.090147987008095" style="fill:none" fill="none"/></g></g></g></g></g></g><g clip-path="url(#clip_1)" transform="translate(50, 177)"><clipPath id="clip_1"><rect width="280" height="23"/></clipPath><g><g><line x1="0" x2="0" y1="0" y2="5" style="visibility:inherit" fill="#000" stroke="#CCC" stroke-width="1"/><line x1="20" x2="20" y1="0" y2="5" style="visibility:inherit" fill="#000" stroke="#CCC" stroke-width="1"/><line x1="40" x2="40" y1="0" y2="5" style="visibility:inherit" fill="#000" stroke="#CCC" stroke-width="1"/><line x1="60" x2="60" y1="0" y2="5" style="visibility:inherit" fill="#000" stroke="#CCC" stroke-width="1"/><line x1="80" x2="80" y1="0" y2="5" style="visibility:inherit" fill="#000" stroke="#CCC" stroke-width="1"/><line x1="100" x2="100" y1="0" y2="5" style="visibility:inherit" fill="#000" stroke="#CCC" stroke-width="1"/><line x1="120" x2="120" y1="0" y2="5" style="visibility:inherit" fill="#000" stroke="#CCC" stroke-width="1"/><line x1="140" x2="140" y1="0" y2="5" style="visibility:inherit" fill="#000" stroke="#CCC" stroke-width="1"/><line x1="160" x2="160" y1="0" y2="5" style="visibility:inherit" fill="#000" stroke="#CCC" stroke-width="1"/><line x1="180" x2="180" y1="0" y2="5" style="visibility:inherit" fill="#000" stroke="#CCC" stroke-width="1"/><line x1="200" x2="200" y1="0" y2="5" style="visibility:inherit" fill="#000" stroke="#CCC" stroke-width="1"/><line x1="220" x2="220" y1="0" y2="5" style="visibility:inherit" fill="#000" stroke="#CCC" stroke-width="1"/><line x1="240" x2="240" y1="0" y2="5" style="visibility:inherit" fill="#000" stroke="#CCC" stroke-width="1"/><line x1="260" x2="260" y1="0" y2="5" style="visibility:inherit" fill="#000" stroke="#CCC" stroke-width="1"/><line x1="280" x2="280" y1="0" y2="5" style="visibility:inherit" fill="#000" stroke="#CCC" stroke-width="1"/></g><g><text x="0" y="0" dx="0em" dy=".95em" style="text-anchor:middle;visibility:hidden;font-family:&quot;Helvetica Neue&quot;,sans-serif;font-size:12px;font-weight:200" fill="#212121" stroke="none" stroke-width="1" transform="translate(0, 8)">-10</text><text x="20" y="0" dx="0em" dy=".95em" style="text-anchor:middle;visibility:inherit;font-family:&quot;Helvetica Neue&quot;,sans-serif;font-size:12px;font-weight:200" fill="#212121" stroke="none" stroke-width="1" transform="translate(0, 8)">0</text><text x="40" y="0" dx="0em" dy=".95em" style="text-anchor:middle;visibility:hidden;font-family:&quot;Helvetica Neue&quot;,sans-serif;font-size:12px;font-weight:200" fill="#212121" stroke="none" stroke-width="1" transform="translate(0, 8)">10</text><text x="60" y="0" dx="0em" dy=".95em" style="text-anchor:middle;visibility:inherit;font-family:&quot;Helvetica Neue&quot;,sans-serif;font-size:12px;font-weight:200" fill="#212121" stroke="none" stroke-width="1" transform="translate(0, 8)">20</text><text x="80" y="0" dx="0em" dy=".95em" style="text-anchor:middle;visibility:hidden;font-family:&quot;Helvetica Neue&quot;,sans-serif;font-size:12px;font-weight:200" fill="#212121" stroke="none" stroke-width="1" transform="translate(0, 8)">30</text><text x="100" y="0" dx="0em" dy=".95em" style="text-anchor:middle;visibility:inherit;font-family:&quot;Helvetica Neue&quot;,sans-serif;font-size:12px;font-weight:200" fill="#212121" stroke="none" stroke-width="1" transform="translate(0, 8)">40</text><text x="120" y="0" dx="0em" dy=".95em" style="text-anchor:middle;visibility:hidden;font-family:&quot;Helvetica Neue&quot;,sans-serif;font-size:12px;font-weight:200" fill="#212121" stroke="none" stroke-width="1" transform="translate(0, 8)">50</text><text x="140" y="0" dx="0em" dy=".95em" style="text-anchor:middle;visibility:inherit;font-family:&quot;Helvetica Neue&quot;,sans-serif;font-size:12px;font-weight:200" fill="#212121" stroke="none" stroke-width="1" transform="translate(0, 8)">60</text><text x="160" y="0" dx="0em" dy=".95em" style="text-anchor:middle;visibility:hidden;font-family:&quot;Helvetica Neue&quot;,sans-serif;font-size:12px;font-weight:200" fill="#212121" stroke="none" stroke-width="1" transform="translate(0, 8)">70</text><text x="180" y="0" dx="0em" dy=".95em" style="text-anchor:middle;visibility:inherit;font-family:&quot;Helvetica Neue&quot;,sans-serif;font-size:12px;font-weight:200" fill="#212121" stroke="none" stroke-width="1" transform="translate(0, 8)">80</text><text x="200" y="0" dx="0em" dy=".95em" style="text-anchor:middle;visibility:hidden;font-family:&quot;Helvetica Neue&quot;,sans-serif;font-size:12px;font-weight:200" fill="#212121" stroke="none" stroke-width="1" transform="translate(0, 8)">90</text><text x="220" y="0" dx="0em" dy=".95em" style="text-anchor:middle;visibility:inherit;font-family:&quot;Helvetica Neue&quot;,sans-serif;font-size:12px;font-weight:200" fill="#212121" stroke="none" stroke-width="1" transform="translate(0, 8)">100</text><text x="240" y="0" dx="0em" dy=".95em" style="text-anchor:middle;visibility:hidden;font-family:&quot;Helvetica Neue&quot;,sans-serif;font-size:12px;font-weight:200" fill="#212121" stroke="none" stroke-width="1" transform="translate(0, 8)">110</text><text x="260" y="0" dx="0em" dy=".95em" style="text-anchor:middle;visibility:inherit;font-family:&quot;Helvetica Neue&quot;,sans-serif;font-size:12px;font-weight:200" fill="#212121" stroke="none" stroke-width="1" transform="translate(0, 8)">120</text><text x="280" y="0" dx="0em" dy=".95em" style="text-anchor:middle;visibility:hidden;font-family:&quot;Helvetica Neue&quot;,sans-serif;font-size:12px;font-weight:200" fill="#212121" stroke="none" stroke-width="1" transform="translate(0, 8)">130</text></g><line x1="0" x2="280" y1="0" y2="0" fill="#000" stroke="#CCC" stroke-width="1"/></g></g></g></g></svg>