<svg xmlns="http://www.w3.org/2000/svg" viewBox="0 0 330 200"><g><g><g><g><g><line x1="50" x2="45" y1="177" y2="177" style="visibility:inherit" fill="#000" stroke="#CCC" stroke-width="1"/><line x1="50" x2="45" y1="157.333" y2="157.333" style="visibility:inherit" fill="#000" stroke="#CCC" stroke-width="1"/><line x1="50" x2="45" y1="137.667" y2="137.667" style="visibility:inherit" fill="#000" stroke="#CCC" stroke-width="1"/><line x1="50" x2="45" y1="118" y2="118" style="visibility:inherit" fill="#000" stroke="#CCC" stroke-width="1"/><line x1="50" x2="45" y1="98.333" y2="98.333" style="visibility:inherit" fill="#000" stroke="#CCC" stroke-width="1"/><line x1="50" x2="45" y1="78.667" y2="78.667" style="visibility:inherit" fill="#000" stroke="#CCC" stroke-width="1"/><line x1="50" x2="45" y1="59" y2="59" style="visibility:inherit" fill="#000" stroke="#CCC" stroke-width="1"/><line x1="50" x2="45" y1="39.333" y2="39.333" style="visibility:inherit" fill="#000" stroke="#CCC" stroke-width="1"/><line x1="50" x2="45" y1="19.667" y2="19.667" style="visibility:inherit" fill="#000" stroke="#CCC" stroke-width="1"/><line x1="50" x2="45" y1="0" y2="0" style="visibility:inherit" fill="#000" stroke="#CCC" stroke-width="1"/></g><g><text x="0" y="177" dx="0em" dy=".3em" style="text-anchor:end;visibility:hidden;font-family:&quot;Helvetica Neue&quot;,sans-serif;font-size:12px;font-weight:200" fill="#212121" stroke="none" stroke-width="1" transform="translate(40, 0)">0.1</text><text x="0" y="157.333" dx="0em" dy=".3em" style="text-anchor:end;visibility:inherit;font-family:&quot;Helvetica Neue&quot;,sans-serif;font-size:12px;font-weight:200" fill="#212121" stroke="none" stroke-width="1" transform="translate(40, 0)">0.15</text><text x="0" y="137.667" dx="0em" dy=".3em" style="text-anchor:end;visibility:hidden;font-family:&quot;Helvetica Neue&quot;,sans-serif;font-size:12px;font-weight:200" fill="#212121" stroke="none" stroke-width="1" transform="translate(40, 0)">0.2</text><text x="0" y="118" dx="0em" dy=".3em" style="text-anchor:end;visibility:inherit;font-family:&quot;Helvetica Neue&quot;,sans-serif;font-size:12px;font-weight:200" fill="#212121" stroke="none" stroke-width="1" transform="translate(40, 0)">0.25</text><text x="0" y="98.333" dx="0em" dy=".3em" style="text-anchor:end;visibility:hidden;font-family:&quot;Helvetica Neue&quot;,sans-serif;font-size:12px;font-weight:200" fill="#212121" stroke="none" stroke-width="1" transform="translate(40, 0)">0.3</text><text x="0" y="78.667" dx="0em" dy=".3em" style="text-anchor:end;visibility:inherit;font-family:&quot;Helvetica Neue&quot;,sans-serif;font-size:12px;font-weight:200" fill="#212121" stroke="none" stroke-width="1" transform="translate(40, 0)">0.35</text><text x="0" y="59" dx="0em" dy=".3em" style="text-anchor:end;visibility:hidden;font-family:&quot;Helvetica Neue&quot;,sans-serif;font-size:12px;font-weight:200" fill="#212121" stroke="none" stroke-width="1" transform="translate(40, 0)">0.4</text><text x="0" y="39.333" dx="0em" dy=".3em" style="text-anchor:end;visibility:inherit;font-family:&quot;Helvetica Neue&quot;,sans-serif;font-size:12px;font-weight:200" fill="#212121" stroke="none" stroke-width="1" transform="translate(40, 0)">0.45</text><text x="0" y="19.667" dx="0em" dy=".3em" style="text-anchor:end;visibility:hidden;font-family:&quot;Helvetica Neue&quot;,sans-serif;font-size:12px;font-weight:200" fill="#212121" stroke="none" stroke-width="1" transform="translate(40, 0)">0.5</text><text x="0" y="0" dx="0em" dy=".3em" style="text-anchor:end;visibility:hidden;font-family:&quot;Helvetica Neue&quot;,sans-serif;font-size:12px;font-weight:200" fill="#212121" stroke="none" stroke-width="1" transform="translate(40, 0)">0.55</text></g><line x1="50" x2="50" y1="0" y2="177" fill="#000" stroke="#CCC" stroke-width="1"/></g></g><g clip-path="url(#clip_0)" transform="translate(50, 0)"><clipPath id="clip_0"><rect width="280" height="177"/></clipPath><g><g><g><line x1="0" x2="0" y1="0" y2="177" fill="#000" stroke="#424242" stroke-width="1" opacity=".25"/><line x1="20" x2="20" y1="0" y2="177" fill="#000" stroke="#424242" stroke-width="1" opacity=".25"/><line x1="40" x2="40" y1="0" y2="177" fill="#000" stroke="#424242" stroke-width="1" opacity=".25"/><line x1="60" x2="60" y1="0" y2="177" fill="#000" stroke="#424242" stroke-width="1" opacity=".25"/><line x1="80" x2="80" y1="0" y2="177" fill="#000" stroke="#424242" stroke-width="1" opacity=".25"/><line x1="100" x2="100" y1="0" y2="177" fill="#000" stroke="#424242" stroke-width="1" opacity=".25"/><line x1="120" x2="120" y1="0" y2="177" fill="#000" stroke="#424242" stroke-width="1" opacity=".25"/><line x1="140" x2="140" y1="0" y2="177" fill="#000" stroke="#424242" stroke-width="1" opacity=".25"/><line x1="160" x2="160" y1="0" y2="177" fill="#000" stroke="#424242" stroke-width="1" opacity=".25"/><line x1="180" x2="180" y1="0" y2="177" fill="#000" stroke="#424242" stroke-width="1" opacity=".25"/><line x1="200" x2="200" y1="0" y2="177" fill="#000" stroke="#424242" stroke-width="1" opacity=".25"/><line x1="220" x2="220" y1="0" y2="177" fill="#000" stroke="#424242" stroke-width="1" opacity=".25"/><line x1="240" x2="240" y1="0" y2="177" fill="#000" stroke="#424242" stroke-width="1" opacity=".25"/><line x1="260" x2="260" y1="0" y2="177" fill="#000" stroke="#424242" stroke-width="1" opacity=".25"/><line x1="280" x2="280" y1="0" y2="177" fill="#000" stroke="#424242" stroke-width="1" opacity=".25"/></g><g><line x1="0" x2="280" y1="177" y2="177" fill="#000" stroke="#424242" stroke-width="1" opacity=".25"/><line x1="0" x2="280" y1="157.333" y2="157.333" fill="#000" stroke="#424242" stroke-width="1" opacity=".25"/><line x1="0" x2="280" y1="137.667" y2="137.667" fill="#000" stroke="#424242" stroke-width="1" opacity=".25"/><line x1="0" x2="280" y1="118" y2="118" fill="#000" stroke="#424242" stroke-width="1" opacity=".25"/><line x1="0" x2="280" y1="98.333" y2="98.333" fill="#000" stroke="#424242" stroke-width="1" opacity=".25"/><line x1="0" x2="280" y1="78.667" y2="78.667" fill="#000" stroke="#424242" stroke-width="1" opacity=".25"/><line x1="0" x2="280" y1="59" y2="59" fill="#000" stroke="#424242" stroke-width="1" opacity=".25"/><line x1="0" x2="280" y1="39.333" y2="39.333" fill="#000" stroke="#424242" stroke-width="1" opacity=".25"/><line x1="0" x2="280" y1="19.667" y2="19.667" fill="#000" stroke="#424242" stroke-width="1" opacity=".25"/><line x1="0" x2="280" y1="0" y2="0" fill="#000" stroke="#424242" stroke-width="1" opacity=".25"/></g></g></g><g><g><line x1="0" x2="280" y1="216.333" y2="216.333" fill="#000" stroke="#999" stroke-width="1.5"/></g></g><g><g><line x1="20" x2="20" y1="0" y2="177" fill="#000" stroke="#999" stroke-width="1.5"/></g></g><g><g><g><g><g><path stroke="#07B" stroke-width="2" d="M20,1.9639405409495225L22,-2.42211393515268L26,-1.8010374079731832L28,2.0466125610386143L30,4.5387872635058955L32,5.439200831613761L34,6.50605904051173L36,9.02441084077617L38,11.77015992858719L40,14.3734952411682L42,17.460724502018167L44,21.11341732693137L46,24.007196492988243L48,26.439982651591237L50,28.729335235342262L52,28.334861634152276L54,27.915339276696756L56,26.993812510077277L58.00000000000001,24.6411312787898L60,23.269729513157216L62,22.451995230106206L64,23.767769358378786L66,26.53620502353479L68,30.74866856495254L70,34.302348461047245L72,36.268532512084306L74,37.029142940721954L76,38.248172623860796L78,40.24086667023448L80,44.326120192820014L82,47.343916037457944L84,50.94380689492695L86,55.16182091895536L88,60.333707773567156L90,66.1200433953674L92,69.01671378720773L93.99999999999999,71.171071463333L96,73.12749814638649L98,73.55412656314074L100,72.10829595358578L102,70.07462627570159L104,69.12729961972099L106,67.83423901754468L108,66.46741855025695L110,65.38109528940345L112,64.91180264901209L114,65.14220791629127L116.00000000000001,65.13868222378395L118,64.558720996431L120,63.0630987865365L122,63.191928457179245L124,67.79248025673945L126,68.41536747609634L128,70.58748940147139L130,72.42363714089366L132,73.95389581666649L134,74.19812498656668L136,73.99516604444042L138,73.31710911254478L140,71.44007544791927L142,69.86815198109284L144,68.10723051932892L146,64.65417212748989L148,60.785879324899895L150,55.0234301593066L152,49.49038212932112L154,49.673878058415426L156,52.810509696377395L158,58.85051028814301L160,62.448182476876454L162.00000000000003,62.65248562494017L164,63.257423903141984L166,64.94731707509037L168,70.49893940569366L170,78.73616073776131L172,82.76545711109347L174,86.22719641377115L176,85.12615601926795L178,83.97226901477428L180,82.02714747364831L182,75.57778631553357L184,70.80420621378406L186,64.54167564795326L187.99999999999997,59.27342227351218L190,59.583718239773575L192,63.234321462815586L194,67.43343574267959L196,72.24941906012496L198,76.90839311685602L200,80.37833658778534L202,81.2074429984323L204,83.39752895010108L206,83.73874656978803L208,83.25879477236803L210,83.48358290259522L212,83.01486322600334L214,83.25373344412658L216,80.05648719146578L218,78.41404830738739L220,74.15802185133002L222,70.44693726139208L224,74.98331020178563L226,71.61451710404253L228,75.31176586036662L230,72.3346934184518L232.00000000000003,74.11347591867568L234,79.11098970566502L236,75.3966830110211L238,73.60200499310051L240,75.64879246640577L242,73.89078199916108L244,71.72925026448384L246,71.92206468124277L248,72.7313258525079L250,71.80746524391643L252,72.7138955644254L254,65.79794095664127L256,63.70315614566549L258,63.052405130219526L260,68.4696010339372L262,70.25617099532163L264,71.96327119307921L266,73.17652206363601L268,73.34441645587877" style="fill:none" fill="none"/></g><g><path stroke="#FF7043" stroke-width="2" d="M20,14.268783013025939L22,26.164313932259887L24,32.22158461444232L26,36.295925110578594L28,39.98864766397665L30,43.12025229720891L32,45.87773292810462L34,48.42453875407125L36,50.87620088305192L38,53.175599666590344L40,55.533414073213834L42,57.813148365178904L44,60.13140710351871L46,62.33463189572262L48,64.6087124468548L50,66.86218791233394L52,68.97595536071756L54,70.86405818432637L56,72.76996863829329L58.00000000000001,74.59413882754052L60,76.27182096174893L62,77.77010983539569L64,79.2525757700349L66,80.59520391334192L68,82.26978217632325L70,83.92692181264546L72,85.70735472750067L74,87.66328333910295L76,89.57560882554291L78,91.27054524690578L80,92.81251354169257L82,94.45139640788906L84,96.24625254035041L86,97.85200831142292L88,99.2305512000508L90,99.4822505720224L92,100.64075980154983L93.99999999999999,101.72219307964254L96,102.37225340200378L98,103.21878201911508L100,103.45939445008062L102,104.43742934617313L104,106.04144590594737L106,107.54024241094947L108,109.12683784417013L110,110.60612272103933L112,111.94486885997878L114,113.05256204845944L116.00000000000001,114.07148052679347L118,114.88825695571074L120,115.64969751551186L122,116.53152612039369L124,116.76396135005746L126,116.3772389621337L128,117.19614950006059L130,118.20217982442128L132,119.7364623596927L134,121.34517934624338L136,123.45735167684563L138,125.73530499471681L140,127.75080253481946L142,129.7006610341872L144,131.3318160677754L146,132.58685402302763L148,133.50258627074254L150,134.1215948097147L152,134.34570755753344L154,134.86636931614137L156,136.33351787080005L158,137.7535367577253L160,138.40430759006608L162.00000000000003,139.12758577633224L164,139.35182293714078L166,139.4562601593792L168,140.3199833282427L170,141.30005499811546L172,140.82298417741998L174,141.12604950977334L176,142.5456149604696L178,144.92273269653984L180,146.65687408384085L182,147.83272976678452L184,148.90748691758617L186,149.52496741732622L187.99999999999997,150.1654870501399L190,150.7248588636263L192,151.77072350788578L194,153.27931918665846L196,155.03889475245325L198,157.09734701700438L200,157.89784186435202L202,157.44472908190363L204,158.63574389146652L206,160.563694410683L208,161.5499388534792L210,162.28943740679628L212,163.18825980437086L214,164.21992746439946L216,165.10786922443333L218,164.97640254299893L220,163.39168270946178L222,163.95786193522196L224,162.60928928561438L226,163.32789674425578L228,161.80402255271548L230,162.5483725163222L232.00000000000003,156.93813273665592L234,150.66149330948164L236,153.93553707290314L238,157.937648526561L240,159.69105026229127L242,163.0380739555989L244,165.45757492301271L246,168.0721294199471L248,169.62737684538232L250,170.9385595545586L252,171.27876645478105L254,170.63494311662015L256,170.2326775524507L258,170.9595277388984L260,169.49756344239478L262,169.30029627927482L264,170.4363922233284L266,170.1305724077364L268,170.87127769547345" style="fill:none" fill="none"/></g></g></g></g><g opacity=".2"><g><g><g><path stroke="#07B" stroke-width="2" d="M20,1.9639405409495225L22,-5.053746620813968L24,-10.212379217147827L26,3.603507757186918L28,7.070104360580444L30,7.98636205991113L32,6.726806640625L34,8.061548550923675L36,12.738490581512451L38,15.847277323404967L40,18.254886150360107L42,22.07476782798767L44,26.580529888470977L46,28.342196027437865L48,30.086302240689605L50,32.161749482154846L52,27.74331816037497L54,27.28616225719452L56,25.61166274547577L58.00000000000001,21.112324476242094L60,21.21270207564038L62,21.22542071342471L64,25.74140457312268L66,30.688825726509094L68,37.06733393669131L70,39.63285315036774L72,39.217803557713836L74,38.17005741596222L76,40.07671602567038L78,43.22990663846335L80,50.453999121983856L82,51.87060920397441L84,56.34364275137585L86,61.48884165287018L88,68.09153783321382L90,74.79954667886099L92,73.36171933015189L93.99999999999999,74.40260795752208L96,76.06213816006978L98,74.19406918684643L100,69.9395500421524L102,67.02412176132202L104,67.70630963643391L106,65.8946481148402L108,64.41718784968059L110,63.75161039829254L112,64.20786368846895L114,65.48781581719717L116.00000000000001,65.13339368502301L118,63.68877915541333L120,60.81966547171275L122,63.38517296314241L124,74.69330795605978L126,69.34969830513L128,73.84567228953044L130,75.17785875002545L132,76.24928383032481L134,74.56446874141693L136,73.69072763125104L138,72.30002371470135L140,68.62452495098115L142,67.51026678085327L144,65.46584832668306L146,59.47458453973135L148,54.98344012101492L150,46.379756410916656L152,41.190810084342985L154,49.9491219520569L156,57.51545715332033L158,67.91051117579143L160,67.84469075997671L162.00000000000003,62.958940347035735L164,64.16483132044475L166,67.48215683301291L168,78.82637290159863L170,91.09199273586275L172,88.80940167109173L174,91.4198053677877L176,83.47459542751312L178,82.24143850803377L180,79.10946516195935L182,65.90374457836151L184,63.64383606115979L186,55.147879799207075L187.99999999999997,51.371042211850494L190,60.049162189165756L192,68.71022629737854L194,73.7321071624756L196,79.47339403629306L198,83.89685420195264L200,85.5832517941793L202,82.45110261440279L204,86.68265787760419L206,84.25057299931846L208,82.538867076238L210,83.82076509793602L212,82.31178371111554L214,83.61203877131145L216,75.26061781247458L218,75.95038998126984L220,67.77398216724397L222,64.8803103764852L224,81.78786961237591L226,66.56132745742798L228,80.8576389948527L230,67.86908475557964L232.00000000000003,76.78164966901143L234,86.60726038614911L236,69.82522296905519L238,70.90998796621959L240,78.71897367636365L242,71.25376629829407L244,68.48695266246797L246,72.21128630638123L248,73.94521760940553L250,70.42167433102925L252,74.0735410451889L254,55.42400904496512L256,60.56097892920177L258,62.07627860705058L260,76.59539488951366L262,72.93602593739828L264,74.52392148971558L266,74.99639836947125L268,73.59625804424286" style="fill:none" fill="none"/></g><g><path stroke="#FF7043" stroke-width="2" d="M20,14.268783013025939L22,33.30163248380026L24,38.03656446933749L26,41.08734953403473L28,44.809866229693085L30,47.452388882637024L32,49.820974349975586L34,52.13780609766643L36,54.49192631244661L38,56.58993887901306L40,59.048750480016096L42,61.220343589782715L44,63.6012256940206L46,65.63515273729962L48,68.01716017723085L50,70.24081178506216L52,72.14571205774944L54,73.69573303063711L56,75.62854397296906L58.00000000000001,77.33022737503052L60,78.78825215498607L62,80.0174938440323L64,81.47624540328981L66,82.60913022359213L68,84.78163766860962L70,86.41262420018515L72,88.37799954414369L74,90.59717325369519L76,92.44409529368085L78,93.81294894218446L80,95.12546547253928L82,96.909720381101L84,98.93853652477266L86,100.26064185301465L88,101.29836547374727L90,99.8597996234894L92,102.37852362791698L93.99999999999999,103.34434298674267L96,103.34734388192497L98,104.48857494195303L100,103.82031309604646L102,105.90448168913525L104,108.4474707444509L106,109.78843716780345L108,111.50673099358877L110,112.82505003611247L112,113.95298806826275L114,114.71410183111828L116.00000000000001,115.59985824426016L118,116.11342159907025L120,116.79185835520428L122,117.85426902770996L124,117.11261419455212L126,115.79715538024904L128,118.42451530694962L130,119.71122531096142L132,122.03788616259894L134,123.75825482606889L136,126.62561017274857L138,129.15223497152328L140,130.77404884497327L142,132.62544878323874L144,133.7785486181577L146,134.46941095590591L148,134.8761846423149L150,135.05010761817297L152,134.68187667926153L154,135.64736195405325L156,138.53424070278805L158,139.88356508811316L160,139.38046383857727L162.00000000000003,140.21250305573147L164,139.68817867835364L166,139.61291599273682L168,141.6155680815379L170,142.77016250292462L172,140.1073779463768L174,141.58064750830334L176,144.67496313651404L178,148.4884093006452L180,149.2580861647924L182,149.5965132912L184,150.51962264378867L186,150.45118816693625L187.99999999999997,151.1262664993604L190,151.56391658385596L192,153.33952047427496L194,155.54221270481747L196,157.67825810114545L198,160.18502541383108L200,159.09858413537344L202,156.7650599082311L204,160.42226610581082L206,163.4556201895078L208,163.0293055176735L210,163.3986852367719L212,164.53649340073267L214,165.76742895444235L216,166.43978186448416L218,164.77920252084732L220,161.01460295915604L222,164.8071307738622L224,160.586430311203L226,164.40580793221793L228,159.51821126540503L230,163.66489746173224L232.00000000000003,148.5227730671565L234,141.24653416872025L236,158.8466027180354L238,163.9408157070478L240,162.3211528658867L242,168.05860949556032L244,169.08682637413344L246,171.99396116534868L248,171.96024798353514L250,172.905333618323L252,171.78907680511475L254,169.66920810937881L256,169.62927920619646L258,172.04980301856995L260,167.30461699763933L262,169.00439553459486L264,172.14053613940874L266,169.67184268434843L268,171.982335627079" style="fill:none" fill="none"/></g></g></g></g></g><g><g><span fill="#000" stroke="none" stroke-width="1">Alt + Scroll to Zoom</span></g></g></g><g clip-path="url(#clip_1)" transform="translate(50, 177)"><clipPath id="clip_1"><rect width="280" height="23"/></clipPath><g><g><line x1="0" x2="0" y1="0" y2="5" style="visibility:inherit" fill="#000" stroke="#CCC" stroke-width="1"/><line x1="20" x2="20" y1="0" y2="5" style="visibility:inherit" fill="#000" stroke="#CCC" stroke-width="1"/><line x1="40" x2="40" y1="0" y2="5" style="visibility:inherit" fill="#000" stroke="#CCC" stroke-width="1"/><line x1="60" x2="60" y1="0" y2="5" style="visibility:inherit" fill="#000" stroke="#CCC" stroke-width="1"/><line x1="80" x2="80" y1="0" y2="5" style="visibility:inherit" fill="#000" stroke="#CCC" stroke-width="1"/><line x1="100" x2="100" y1="0" y2="5" style="visibility:inherit" fill="#000" stroke="#CCC" stroke-width="1"/><line x1="120" x2="120" y1="0" y2="5" style="visibility:inherit" fill="#000" stroke="#CCC" stroke-width="1"/><line x1="140" x2="140" y1="0" y2="5" style="visibility:inherit" fill="#000" stroke="#CCC" stroke-width="1"/><line x1="160" x2="160" y1="0" y2="5" style="visibility:inherit" fill="#000" stroke="#CCC" stroke-width="1"/><line x1="180" x2="180" y1="0" y2="5" style="visibility:inherit" fill="#000" stroke="#CCC" stroke-width="1"/><line x1="200" x2="200" y1="0" y2="5" style="visibility:inherit" fill="#000" stroke="#CCC" stroke-width="1"/><line x1="220" x2="220" y1="0" y2="5" style="visibility:inherit" fill="#000" stroke="#CCC" stroke-width="1"/><line x1="240" x2="240" y1="0" y2="5" style="visibility:inherit" fill="#000" stroke="#CCC" stroke-width="1"/><line x1="260" x2="260" y1="0" y2="5" style="visibility:inherit" fill="#000" stroke="#CCC" stroke-width="1"/><line x1="280" x2="280" y1="0" y2="5" style="visibility:inherit" fill="#000" stroke="#CCC" stroke-width="1"/></g><g><text x="0" y="0" dx="0em" dy=".95em" style="text-anchor:middle;visibility:hidden;font-family:&quot;Helvetica Neue&quot;,sans-serif;font-size:12px;font-weight:200" fill="#212121" stroke="none" stroke-width="1" transform="translate(0, 8)">-10</text><text x="20" y="0" dx="0em" dy=".95em" style="text-anchor:middle;visibility:inherit;font-family:&quot;Helvetica Neue&quot;,sans-serif;font-size:12px;font-weight:200" fill="#212121" stroke="none" stroke-width="1" transform="translate(0, 8)">0</text><text x="40" y="0" dx="0em" dy=".95em" style="text-anchor:middle;visibility:hidden;font-family:&quot;Helvetica Neue&quot;,sans-serif;font-size:12px;font-weight:200" fill="#212121" stroke="none" stroke-width="1" transform="translate(0, 8)">10</text><text x="60" y="0" dx="0em" dy=".95em" style="text-anchor:middle;visibility:inherit;font-family:&quot;Helvetica Neue&quot;,sans-serif;font-size:12px;font-weight:200" fill="#212121" stroke="none" stroke-width="1" transform="translate(0, 8)">20</text><text x="80" y="0" dx="0em" dy=".95em" style="text-anchor:middle;visibility:hidden;font-family:&quot;Helvetica Neue&quot;,sans-serif;font-size:12px;font-weight:200" fill="#212121" stroke="none" stroke-width="1" transform="translate(0, 8)">30</text><text x="100" y="0" dx="0em" dy=".95em" style="text-anchor:middle;visibility:inherit;font-family:&quot;Helvetica Neue&quot;,sans-serif;font-size:12px;font-weight:200" fill="#212121" stroke="none" stroke-width="1" transform="translate(0, 8)">40</text><text x="120" y="0" dx="0em" dy=".95em" style="text-anchor:middle;visibility:hidden;font-family:&quot;Helvetica Neue&quot;,sans-serif;font-size:12px;font-weight:200" fill="#212121" stroke="none" stroke-width="1" transform="translate(0, 8)">50</text><text x="140" y="0" dx="0em" dy=".95em" style="text-anchor:middle;visibility:inherit;font-family:&quot;Helvetica Neue&quot;,sans-serif;font-size:12px;font-weight:200" fill="#212121" stroke="none" stroke-width="1" transform="translate(0, 8)">60</text><text x="160" y="0" dx="0em" dy=".95em" style="text-anchor:middle;visibility:hidden;font-family:&quot;Helvetica Neue&quot;,sans-serif;font-size:12px;font-weight:200" fill="#212121" stroke="none" stroke-width="1" transform="translate(0, 8)">70</text><text x="180" y="0" dx="0em" dy=".95em" style="text-anchor:middle;visibility:inherit;font-family:&quot;Helvetica Neue&quot;,sans-serif;font-size:12px;font-weight:200" fill="#212121" stroke="none" stroke-width="1" transform="translate(0, 8)">80</text><text x="200" y="0" dx="0em" dy=".95em" style="text-anchor:middle;visibility:hidden;font-family:&quot;Helvetica Neue&quot;,sans-serif;font-size:12px;font-weight:200" fill="#212121" stroke="none" stroke-width="1" transform="translate(0, 8)">90</text><text x="220" y="0" dx="0em" dy=".95em" style="text-anchor:middle;visibility:inherit;font-family:&quot;Helvetica Neue&quot;,sans-serif;font-size:12px;font-weight:200" fill="#212121" stroke="none" stroke-width="1" transform="translate(0, 8)">100</text><text x="240" y="0" dx="0em" dy=".95em" style="text-anchor:middle;visibility:hidden;font-family:&quot;Helvetica Neue&quot;,sans-serif;font-size:12px;font-weight:200" fill="#212121" stroke="none" stroke-width="1" transform="translate(0, 8)">110</text><text x="260" y="0" dx="0em" dy=".95em" style="text-anchor:middle;visibility:inherit;font-family:&quot;Helvetica Neue&quot;,sans-serif;font-size:12px;font-weight:200" fill="#212121" stroke="none" stroke-width="1" transform="translate(0, 8)">120</text><text x="280" y="0" dx="0em" dy=".95em" style="text-anchor:middle;visibility:hidden;font-family:&quot;Helvetica Neue&quot;,sans-serif;font-size:12px;font-weight:200" fill="#212121" stroke="none" stroke-width="1" transform="translate(0, 8)">130</text></g><line x1="0" x2="280" y1="0" y2="0" fill="#000" stroke="#CCC" stroke-width="1"/></g></g></g></g></svg>